HIERARCHY
ROOT Hips
{
	OFFSET 0.000000 0.000000 0.000000
	CHANNELS 6 Xposition Yposition Zposition Zrotation Yrotation Xrotation 
	JOINT LHipJoint
	{
		OFFSET 0.000000 0.000000 0.000000
		CHANNELS 3 Zrotation Yrotation Xrotation
		JOINT LeftUpLeg
		{
			OFFSET 1.363060 -1.794630 0.839290
			CHANNELS 3 Zrotation Yrotation Xrotation
			JOINT LeftLeg
			{
				OFFSET 2.448110 -6.726130 0.000000
				CHANNELS 3 Zrotation Yrotation Xrotation
				JOINT LeftFoot
				{
					OFFSET 2.562200 -7.039590 0.000000
					CHANNELS 3 Zrotation Yrotation Xrotation
					JOINT LeftToeBase
					{
						OFFSET 0.157640 -0.433110 2.322550
						CHANNELS 3 Zrotation Yrotation Xrotation
						End Site
						{
							OFFSET 0.000000 0.000000 0.000000
						}
					}
				}
			}
		}
	}
	JOINT RHipJoint
	{
		OFFSET 0.000000 0.000000 0.000000
		CHANNELS 3 Zrotation Yrotation Xrotation
		JOINT RightUpLeg
		{
			OFFSET -1.305520 -1.794630 0.839290
			CHANNELS 3 Zrotation Yrotation Xrotation
			JOINT RightLeg
			{
				OFFSET -2.542530 -6.985550 0.000000
				CHANNELS 3 Zrotation Yrotation Xrotation
				JOINT RightFoot
				{
					OFFSET -2.568260 -7.056230 0.000000
					CHANNELS 3 Zrotation Yrotation Xrotation
					JOINT RightToeBase
					{
						OFFSET -0.164730 -0.452590 2.363150
						CHANNELS 3 Zrotation Yrotation Xrotation
						End Site
						{
							OFFSET 0.000000 0.000000 0.000000
						}
					}
				}
			}
		}
	}
	JOINT LowerBack
	{
		OFFSET 0.000000 0.000000 0.000000
		CHANNELS 3 Zrotation Yrotation Xrotation
		JOINT Spine
		{
			OFFSET 0.028270 2.035590 -0.193380
			CHANNELS 3 Zrotation Yrotation Xrotation
			JOINT Spine1
			{
				OFFSET 0.056720 2.048850 -0.042750
				CHANNELS 3 Zrotation Yrotation Xrotation
				JOINT Neck
				{
					OFFSET 0.000000 0.000000 0.000000
					CHANNELS 3 Zrotation Yrotation Xrotation
					JOINT Neck1
					{
						OFFSET -0.054170 1.746240 0.172020
						CHANNELS 3 Zrotation Yrotation Xrotation
						JOINT Head
						{
							OFFSET 0.104070 1.761360 -0.123970
							CHANNELS 3 Zrotation Yrotation Xrotation
							End Site
							{
								OFFSET 0.000000 0.000000 0.000000
							}
						}
					}
				}
				JOINT LeftShoulder
				{
					OFFSET 0.000000 0.000000 0.000000
					CHANNELS 3 Zrotation Yrotation Xrotation
					JOINT LeftArm
					{
						OFFSET 3.362410 1.200890 -0.311210
						CHANNELS 3 Zrotation Yrotation Xrotation
						JOINT LeftForeArm
						{
							OFFSET 4.983000 -0.000000 -0.000000
							CHANNELS 3 Zrotation Yrotation Xrotation
							JOINT LeftHand
							{
								OFFSET 3.483560 -0.000000 -0.000000
								CHANNELS 3 Zrotation Yrotation Xrotation
								JOINT LeftFingerBase
								{
									OFFSET 0.000000 0.000000 0.000000
									CHANNELS 3 Zrotation Yrotation Xrotation
									JOINT LeftHandIndex1
									{
										OFFSET 0.715260 -0.000000 -0.000000
										CHANNELS 3 Zrotation Yrotation Xrotation
										End Site
										{
											OFFSET 0.000000 0.000000 0.000000
										}
									}
								}
								JOINT LThumb
								{
									OFFSET 0.000000 0.000000 0.000000
									CHANNELS 3 Zrotation Yrotation Xrotation
									End Site
									{
										OFFSET 0.000000 0.000000 0.000000
									}
								}
							}
						}
					}
				}
				JOINT RightShoulder
				{
					OFFSET 0.000000 0.000000 0.000000
					CHANNELS 3 Zrotation Yrotation Xrotation
					JOINT RightArm
					{
						OFFSET -3.136600 1.374050 -0.404650
						CHANNELS 3 Zrotation Yrotation Xrotation
						JOINT RightForeArm
						{
							OFFSET -5.241900 -0.000000 -0.000000
							CHANNELS 3 Zrotation Yrotation Xrotation
							JOINT RightHand
							{
								OFFSET -3.444170 -0.000000 -0.000000
								CHANNELS 3 Zrotation Yrotation Xrotation
								JOINT RightFingerBase
								{
									OFFSET 0.000000 0.000000 0.000000
									CHANNELS 3 Zrotation Yrotation Xrotation
									JOINT RightHandIndex1
									{
										OFFSET -0.622530 -0.000000 -0.000000
										CHANNELS 3 Zrotation Yrotation Xrotation
										End Site
										{
											OFFSET 0.000000 0.000000 0.000000
										}
									}
								}
								JOINT RThumb
								{
									OFFSET 0.000000 0.000000 0.000000
									CHANNELS 3 Zrotation Yrotation Xrotation
									End Site
									{
										OFFSET 0.000000 0.000000 0.000000
									}
								}
							}
						}
					}
				}
			}
		}
	}
}
MOTION
Frames: 6
Frame Time: 0.008333
0.836040 17.876287 24.449272 1.445950 -2.327270 1.232002 -1.661527 5.999071 5.729689 -21.774934 -5.550141 -4.982843 -0.555795 4.433130 19.901526 1.091554 -3.711656 -0.252400 0.001447 -0.120951 -0.332271 1.124883 -4.032441 2.695417 15.900356 10.324185 -32.251039 -3.169386 -11.000743 34.525562 3.489479 -13.138084 4.758725 -0.134849 2.362126 -6.507833 -3.410448 -1.213275 6.235164 3.550513 -1.696624 3.390471 3.686507 -0.910452 -9.353462 -5.311147 -3.505706 -16.171228 2.242051 -3.486044 23.110055 -0.223582 -1.393975 10.558538 -7.135723 2.674565 -1.120373 -75.675896 -0.018913 29.072318 15.001264 -24.851675 -3.442405 -0.271266 -0.719370 -8.929242 26.833769 19.966573 10.274740 -7.125000 0.000000 0.000000 -1.392197 52.932942 -0.275099 11.205157 -2.058346 -2.397161 74.900132 -0.661026 -0.562724 -9.389829 20.364293 -2.045442 1.030596 -0.392430 6.395170 -17.527070 20.361388 -6.726702 7.125000 0.000000 0.000000 6.333465 -8.532767 5.357386
0.828187 17.874254 24.530401 1.452343 -2.331231 1.332546 -1.688460 6.022869 5.780060 -21.715432 -5.380873 -4.720105 -0.604464 4.316666 19.592037 1.099679 -3.739320 -0.280210 0.002202 -0.290544 -0.798242 1.201805 -4.015336 2.647250 15.781783 10.498088 -32.223047 -2.833705 -10.597368 33.068778 3.646599 -13.602396 4.932493 -0.143741 2.443454 -6.732952 -3.448217 -1.229529 6.141879 3.567555 -1.714694 3.461427 3.707851 -0.925872 -9.256499 -5.340041 -3.529843 -16.374518 2.332626 -3.506570 23.159828 -0.192477 -1.393347 10.613034 -7.136838 2.675150 -1.120329 -75.595268 -0.326155 28.989690 15.030706 -24.894375 -3.458819 -0.281353 -0.706810 -8.884818 27.120429 19.234819 10.046284 -7.125000 0.000000 0.000000 -0.925319 52.175853 -0.172283 11.202213 -2.052820 -2.394453 74.941934 -0.660488 -0.768666 -9.361515 20.314988 -2.036063 1.028688 -0.390294 6.490224 -17.499374 20.254376 -6.681365 7.125000 0.000000 0.000000 6.345331 -8.649929 5.352670
0.818113 17.872080 24.610618 1.394625 -2.365423 1.440676 -1.714980 6.046381 5.830339 -21.575384 -5.157796 -4.516576 -0.650881 4.208356 19.296773 1.117605 -3.800833 -0.281855 0.003637 -0.384173 -1.055536 1.284688 -3.999077 2.597951 15.735162 10.717643 -32.177249 -2.500821 -10.176064 31.600740 3.794675 -14.028423 5.059067 -0.143634 2.442657 -6.730721 -3.469637 -1.228947 6.104011 3.629363 -1.709377 3.518671 3.743394 -0.928443 -9.204051 -5.362468 -3.552818 -16.625532 2.396469 -3.516053 23.221467 -0.169362 -1.390212 10.679456 -7.140181 2.678621 -1.119829 -75.533476 -0.618928 28.907730 15.069084 -24.949777 -3.479748 -0.292271 -0.692516 -8.910046 27.451599 18.359551 9.760773 -7.125000 0.000000 0.000000 -0.392131 51.264588 -0.066538 11.195670 -2.047403 -2.391820 74.975318 -0.681361 -0.971499 -9.341065 20.281042 -2.029707 1.026693 -0.390641 6.592817 -17.459268 20.204015 -6.649641 7.125000 0.000000 0.000000 6.368818 -8.708115 5.365317
0.807178 17.869619 24.693169 1.331235 -2.353801 1.542658 -1.739483 6.069673 5.876010 -21.427258 -5.019888 -4.277977 -0.695023 4.105790 19.017342 1.135269 -3.869036 -0.255888 0.002661 -0.246214 -0.676539 1.368718 -3.988450 2.549719 15.661538 10.977454 -32.078947 -2.175424 -9.739690 30.140239 3.942808 -14.412203 4.938168 -0.120679 2.219592 -6.113751 -3.508070 -1.247256 6.123140 3.707392 -1.733335 3.469879 3.804316 -0.941293 -9.246182 -5.347465 -3.539508 -16.619305 2.366153 -3.497063 23.198148 -0.178524 -1.384738 10.669703 -7.143516 2.673674 -1.116670 -75.477302 -0.758788 28.875508 15.098848 -24.990126 -3.493003 -0.290202 -0.691158 -9.082659 27.427103 18.242360 9.695731 -7.125000 0.000000 0.000000 -0.389157 51.130705 -0.059999 11.194966 -2.054348 -2.394414 74.981629 -0.784181 -1.301736 -9.267534 20.165376 -2.003523 1.023087 -0.398978 6.866751 -17.357462 20.221883 -6.617054 7.125000 0.000000 0.000000 6.436240 -8.698977 5.424131
0.795833 17.867021 24.776832 1.265142 -2.320337 1.641708 -1.763024 6.092861 5.919483 -21.275281 -4.922584 -4.022658 -0.738080 4.005962 18.745459 1.152808 -3.940427 -0.216756 0.000535 0.002153 0.005807 1.453294 -3.980507 2.501995 15.575041 11.256457 -31.955613 -1.853596 -9.296130 28.683330 4.090967 -14.775843 4.699289 -0.086830 1.890561 -5.203708 -3.554615 -1.274572 6.169442 3.793153 -1.771251 3.370535 3.877336 -0.959044 -9.333404 -5.314619 -3.508899 -16.490441 2.290949 -3.464500 23.134325 -0.203074 -1.378149 10.623632 -7.146848 2.664715 -1.112242 -75.423808 -0.825746 28.866998 15.124504 -25.023299 -3.502599 -0.281942 -0.695967 -9.325537 27.233044 18.486578 9.735797 -7.125000 0.000000 0.000000 -0.638959 51.367436 -0.100756 11.197044 -2.067186 -2.399501 74.975033 -0.926068 -1.692713 -9.168698 20.010751 -1.967886 1.018713 -0.411125 7.222370 -17.226240 20.272279 -6.584056 7.125000 0.000000 0.000000 6.524609 -8.657742 5.504954
0.787734 17.864718 24.862940 1.258977 -2.213874 1.720364 -1.784897 6.119182 5.964005 -21.198384 -4.878835 -3.702266 -0.783843 3.894778 18.450833 1.164246 -4.000278 -0.173960 0.001241 0.174623 0.479772 1.532869 -3.977224 2.458659 15.373504 11.524823 -31.791167 -1.549205 -8.849903 27.254927 4.229162 -15.092377 4.371813 -0.064518 1.621369 -4.460801 -3.593732 -1.332998 6.119682 3.830194 -1.847396 3.294468 3.919315 -0.998298 -9.344248 -5.316970 -3.505520 -16.234530 2.274415 -3.487951 22.975130 -0.211819 -1.394591 10.525328 -7.146422 2.649964 -1.110150 -75.356443 -0.850631 28.858830 15.177965 -25.094520 -3.521666 -0.267210 -0.711098 -9.473507 26.880305 19.424068 10.028913 -7.125000 0.000000 0.000000 -1.229415 52.336395 -0.238667 11.204933 -2.080648 -2.406409 74.968646 -1.034470 -1.903692 -9.058691 19.832620 -1.924638 1.022310 -0.415763 7.247895 -17.228676 20.294446 -6.594415 7.125000 0.000000 0.000000 6.521908 -8.630748 5.506118
